<mxfile host="app.diagrams.net" modified="2024-04-05T07:27:16.634Z" agent="Mozilla/5.0 (Macintosh; Intel Mac OS X 10_15_7) AppleWebKit/537.36 (KHTML, like Gecko) Chrome/121.0.0.0 Safari/537.36" etag="3yG5T-Q2K38VHW4m_YMP" version="24.2.2" type="device" pages="2">
  <diagram id="yPxyJZ8AM_hMuL3Unpa9" name="gitflow">
    <mxGraphModel dx="954" dy="1744" grid="1" gridSize="10" guides="1" tooltips="1" connect="1" arrows="1" fold="1" page="1" pageScale="1" pageWidth="850" pageHeight="1100" math="0" shadow="0">
      <root>
        <mxCell id="0" />
        <mxCell id="1" parent="0" />
        <mxCell id="IFHdx7F4sBDOh2H3q8Vr-239" style="rounded=0;orthogonalLoop=1;jettySize=auto;html=1;exitX=1;exitY=0.65;exitDx=0;exitDy=0;exitPerimeter=0;fontFamily=Helvetica;fontSize=12;fontColor=default;endArrow=none;endFill=0;entryX=1;entryY=0.5;entryDx=0;entryDy=0;" parent="1" source="IFHdx7F4sBDOh2H3q8Vr-237" target="IFHdx7F4sBDOh2H3q8Vr-233" edge="1">
          <mxGeometry relative="1" as="geometry">
            <mxPoint x="325" y="160" as="targetPoint" />
            <Array as="points" />
          </mxGeometry>
        </mxCell>
        <mxCell id="7" value="&lt;font style=&quot;font-size: 15px;&quot;&gt;main&lt;/font&gt;" style="text;html=1;strokeColor=#6c8ebf;fillColor=#dae8fc;align=center;verticalAlign=middle;whiteSpace=wrap;rounded=0;" parent="1" vertex="1">
          <mxGeometry x="810" y="150" width="130" height="20" as="geometry" />
        </mxCell>
        <mxCell id="85" value="&lt;font style=&quot;font-size: 15px;&quot;&gt;&amp;nbsp;feature/myfeature&lt;/font&gt;" style="text;html=1;strokeColor=#2D7600;fillColor=#60a917;align=center;verticalAlign=middle;whiteSpace=wrap;rounded=0;fontColor=#ffffff;" parent="1" vertex="1">
          <mxGeometry x="810" y="345" width="130" height="30" as="geometry" />
        </mxCell>
        <mxCell id="102" value="&lt;font style=&quot;font-size: 15px;&quot;&gt;develop&lt;/font&gt;" style="text;html=1;strokeColor=#23445d;fillColor=#bac8d3;align=center;verticalAlign=middle;whiteSpace=wrap;rounded=0;" parent="1" vertex="1">
          <mxGeometry x="810" y="290" width="130" height="20" as="geometry" />
        </mxCell>
        <mxCell id="IFHdx7F4sBDOh2H3q8Vr-183" value="" style="endArrow=none;html=1;rounded=0;entryX=0;entryY=0.5;entryDx=0;entryDy=0;fillColor=#008a00;strokeColor=#00CC00;strokeWidth=2;dashed=1;" parent="1" source="IFHdx7F4sBDOh2H3q8Vr-195" target="85" edge="1">
          <mxGeometry width="50" height="50" relative="1" as="geometry">
            <mxPoint x="280" y="360" as="sourcePoint" />
            <mxPoint x="630" y="350" as="targetPoint" />
          </mxGeometry>
        </mxCell>
        <mxCell id="IFHdx7F4sBDOh2H3q8Vr-185" value="" style="endArrow=none;html=1;rounded=0;entryX=0;entryY=0.5;entryDx=0;entryDy=0;fillColor=#bac8d3;strokeColor=#23445d;strokeWidth=2;startArrow=classic;startFill=1;" parent="1" source="IFHdx7F4sBDOh2H3q8Vr-198" edge="1">
          <mxGeometry width="50" height="50" relative="1" as="geometry">
            <mxPoint x="280" y="299.5" as="sourcePoint" />
            <mxPoint x="810" y="299.5" as="targetPoint" />
          </mxGeometry>
        </mxCell>
        <mxCell id="IFHdx7F4sBDOh2H3q8Vr-190" value="" style="endArrow=none;html=1;rounded=0;entryX=0;entryY=0.5;entryDx=0;entryDy=0;fillColor=#b1ddf0;strokeColor=#10739E;strokeWidth=2;startArrow=classic;startFill=1;" parent="1" source="IFHdx7F4sBDOh2H3q8Vr-233" edge="1">
          <mxGeometry width="50" height="50" relative="1" as="geometry">
            <mxPoint x="280" y="159.5" as="sourcePoint" />
            <mxPoint x="810" y="159.5" as="targetPoint" />
          </mxGeometry>
        </mxCell>
        <mxCell id="IFHdx7F4sBDOh2H3q8Vr-191" value="&lt;h1&gt;Git flow&lt;/h1&gt;" style="text;html=1;strokeColor=none;fillColor=none;spacing=5;spacingTop=-20;whiteSpace=wrap;overflow=hidden;rounded=0;" parent="1" vertex="1">
          <mxGeometry x="460" y="10" width="190" height="120" as="geometry" />
        </mxCell>
        <mxCell id="IFHdx7F4sBDOh2H3q8Vr-195" value="" style="ellipse;whiteSpace=wrap;html=1;fillColor=#60a917;sketch=0;fillStyle=solid;movable=1;resizable=1;rotatable=1;deletable=1;editable=1;locked=0;connectable=1;fontColor=#ffffff;strokeColor=#2D7600;" parent="1" vertex="1">
          <mxGeometry x="670" y="350" width="20" height="20" as="geometry" />
        </mxCell>
        <mxCell id="IFHdx7F4sBDOh2H3q8Vr-201" value="" style="endArrow=none;html=1;rounded=0;entryX=0;entryY=0.5;entryDx=0;entryDy=0;fillColor=#bac8d3;strokeColor=#23445d;strokeWidth=2;startArrow=classic;startFill=1;" parent="1" source="IFHdx7F4sBDOh2H3q8Vr-210" target="IFHdx7F4sBDOh2H3q8Vr-198" edge="1">
          <mxGeometry width="50" height="50" relative="1" as="geometry">
            <mxPoint x="280" y="299.5" as="sourcePoint" />
            <mxPoint x="810" y="299.5" as="targetPoint" />
          </mxGeometry>
        </mxCell>
        <mxCell id="IFHdx7F4sBDOh2H3q8Vr-198" value="" style="ellipse;whiteSpace=wrap;html=1;fillColor=#647687;sketch=0;fillStyle=solid;fontColor=#ffffff;strokeColor=#314354;" parent="1" vertex="1">
          <mxGeometry x="730" y="290" width="20" height="20" as="geometry" />
        </mxCell>
        <mxCell id="IFHdx7F4sBDOh2H3q8Vr-207" value="" style="endArrow=none;html=1;rounded=0;entryX=0;entryY=0.5;entryDx=0;entryDy=0;fillColor=#B9E0A5;strokeColor=#00CC00;strokeWidth=2;shape=flexArrow;startArrow=block;startWidth=13;startSize=5.67;width=7;" parent="1" edge="1">
          <mxGeometry width="50" height="50" relative="1" as="geometry">
            <mxPoint x="530" y="359.5" as="sourcePoint" />
            <mxPoint x="590" y="359.5" as="targetPoint" />
          </mxGeometry>
        </mxCell>
        <mxCell id="IFHdx7F4sBDOh2H3q8Vr-206" value="" style="ellipse;whiteSpace=wrap;html=1;fillColor=#60a917;sketch=0;fillStyle=solid;movable=1;resizable=1;rotatable=1;deletable=1;editable=1;locked=0;connectable=1;fontColor=#ffffff;strokeColor=#2D7600;" parent="1" vertex="1">
          <mxGeometry x="590" y="350" width="20" height="20" as="geometry" />
        </mxCell>
        <mxCell id="IFHdx7F4sBDOh2H3q8Vr-209" value="" style="endArrow=none;html=1;rounded=0;entryX=0;entryY=0.5;entryDx=0;entryDy=0;fillColor=#008a00;strokeColor=#00CC00;strokeWidth=2;dashed=1;" parent="1" target="IFHdx7F4sBDOh2H3q8Vr-208" edge="1">
          <mxGeometry width="50" height="50" relative="1" as="geometry">
            <mxPoint x="280" y="360" as="sourcePoint" />
            <mxPoint x="590" y="360" as="targetPoint" />
          </mxGeometry>
        </mxCell>
        <mxCell id="IFHdx7F4sBDOh2H3q8Vr-208" value="" style="ellipse;whiteSpace=wrap;html=1;fillColor=#60a917;sketch=0;fillStyle=solid;movable=1;resizable=1;rotatable=1;deletable=1;editable=1;locked=0;connectable=1;fontColor=#ffffff;strokeColor=#2D7600;" parent="1" vertex="1">
          <mxGeometry x="510" y="350" width="20" height="20" as="geometry" />
        </mxCell>
        <mxCell id="IFHdx7F4sBDOh2H3q8Vr-211" value="" style="endArrow=none;html=1;rounded=0;entryX=0;entryY=0.5;entryDx=0;entryDy=0;fillColor=#bac8d3;strokeColor=#23445d;strokeWidth=2;startArrow=classic;startFill=1;" parent="1" target="IFHdx7F4sBDOh2H3q8Vr-210" edge="1">
          <mxGeometry width="50" height="50" relative="1" as="geometry">
            <mxPoint x="270" y="300" as="sourcePoint" />
            <mxPoint x="730" y="300" as="targetPoint" />
            <Array as="points" />
          </mxGeometry>
        </mxCell>
        <mxCell id="IFHdx7F4sBDOh2H3q8Vr-210" value="" style="ellipse;whiteSpace=wrap;html=1;fillColor=#647687;sketch=0;fillStyle=solid;movable=1;resizable=1;rotatable=1;deletable=1;editable=1;locked=0;connectable=1;fontColor=#ffffff;strokeColor=#314354;" parent="1" vertex="1">
          <mxGeometry x="440" y="290" width="20" height="20" as="geometry" />
        </mxCell>
        <mxCell id="IFHdx7F4sBDOh2H3q8Vr-213" value="" style="endArrow=none;html=1;rounded=0;entryX=0;entryY=0.5;entryDx=0;entryDy=0;fillColor=#B9E0A5;strokeColor=#00CC00;strokeWidth=2;shape=flexArrow;startArrow=block;startWidth=13;startSize=5.67;width=7;" parent="1" edge="1">
          <mxGeometry width="50" height="50" relative="1" as="geometry">
            <mxPoint x="610" y="359.5" as="sourcePoint" />
            <mxPoint x="670" y="359.5" as="targetPoint" />
          </mxGeometry>
        </mxCell>
        <mxCell id="IFHdx7F4sBDOh2H3q8Vr-214" value="" style="endArrow=none;html=1;rounded=0;entryX=0;entryY=1;entryDx=0;entryDy=0;fillColor=#B9E0A5;strokeColor=#00CC00;strokeWidth=2;shape=flexArrow;startArrow=block;startWidth=13;startSize=5.67;width=7;exitX=1;exitY=0;exitDx=0;exitDy=0;" parent="1" source="IFHdx7F4sBDOh2H3q8Vr-195" target="IFHdx7F4sBDOh2H3q8Vr-198" edge="1">
          <mxGeometry width="50" height="50" relative="1" as="geometry">
            <mxPoint x="690" y="350" as="sourcePoint" />
            <mxPoint x="780" y="330" as="targetPoint" />
          </mxGeometry>
        </mxCell>
        <mxCell id="IFHdx7F4sBDOh2H3q8Vr-215" value="" style="endArrow=none;html=1;rounded=0;entryX=0;entryY=0;entryDx=0;entryDy=0;fillColor=#B9E0A5;strokeColor=#00CC00;strokeWidth=2;shape=flexArrow;startArrow=block;startWidth=13;startSize=5.67;width=7;exitX=1;exitY=1;exitDx=0;exitDy=0;" parent="1" source="IFHdx7F4sBDOh2H3q8Vr-210" target="IFHdx7F4sBDOh2H3q8Vr-208" edge="1">
          <mxGeometry width="50" height="50" relative="1" as="geometry">
            <mxPoint x="460" y="320" as="sourcePoint" />
            <mxPoint x="520" y="320" as="targetPoint" />
          </mxGeometry>
        </mxCell>
        <mxCell id="ImUb1OBMksggjN6c6jX0-105" style="edgeStyle=orthogonalEdgeStyle;rounded=0;orthogonalLoop=1;jettySize=auto;html=1;exitX=0;exitY=0.5;exitDx=0;exitDy=0;entryX=0.427;entryY=0.997;entryDx=0;entryDy=0;entryPerimeter=0;" edge="1" parent="1" source="IFHdx7F4sBDOh2H3q8Vr-217" target="IFHdx7F4sBDOh2H3q8Vr-227">
          <mxGeometry relative="1" as="geometry">
            <mxPoint x="140" y="440" as="targetPoint" />
          </mxGeometry>
        </mxCell>
        <mxCell id="IFHdx7F4sBDOh2H3q8Vr-217" value="&lt;font style=&quot;font-size: 15px;&quot;&gt;Fusionner myfeature dans &#39;develop&#39; et supprimer la branche.&lt;br&gt;&lt;br&gt;Passer sur la branche &#39;develop&#39;&lt;/font&gt;" style="rounded=1;whiteSpace=wrap;html=1;sketch=0;fillStyle=solid;strokeColor=default;align=center;verticalAlign=middle;fontFamily=Helvetica;fontSize=12;fontColor=default;fillColor=none;" parent="1" vertex="1">
          <mxGeometry x="285" y="390" width="205" height="130" as="geometry" />
        </mxCell>
        <mxCell id="IFHdx7F4sBDOh2H3q8Vr-229" value="" style="edgeStyle=orthogonalEdgeStyle;rounded=0;orthogonalLoop=1;jettySize=auto;html=1;fontFamily=Helvetica;fontSize=12;fontColor=default;" parent="1" source="IFHdx7F4sBDOh2H3q8Vr-222" target="IFHdx7F4sBDOh2H3q8Vr-217" edge="1">
          <mxGeometry relative="1" as="geometry" />
        </mxCell>
        <mxCell id="IFHdx7F4sBDOh2H3q8Vr-222" value="&lt;font style=&quot;font-size: 15px;&quot;&gt;Sur la branche &#39;develop&#39;, créer une branche feature &#39;feature/myfeature&#39;&lt;/font&gt;" style="rounded=1;whiteSpace=wrap;html=1;sketch=0;fillStyle=solid;strokeColor=default;align=center;verticalAlign=middle;fontFamily=Helvetica;fontSize=12;fontColor=default;fillColor=none;" parent="1" vertex="1">
          <mxGeometry x="690" y="400" width="150" height="110" as="geometry" />
        </mxCell>
        <mxCell id="IFHdx7F4sBDOh2H3q8Vr-251" value="" style="edgeStyle=orthogonalEdgeStyle;rounded=0;orthogonalLoop=1;jettySize=auto;html=1;fontFamily=Helvetica;fontSize=12;fontColor=default;" parent="1" source="IFHdx7F4sBDOh2H3q8Vr-227" target="IFHdx7F4sBDOh2H3q8Vr-250" edge="1">
          <mxGeometry relative="1" as="geometry" />
        </mxCell>
        <mxCell id="IFHdx7F4sBDOh2H3q8Vr-227" value="&lt;ul style=&quot;margin: 1em 0px; padding: 0px 0px 0px 1em; list-style: none; text-indent: -1em; text-shadow: none; line-height: 120%; font-size: 16px;&quot;&gt;&lt;li&gt;&lt;font style=&quot;font-size: 16px;&quot; face=&quot;Helvetica&quot;&gt;Fusionne la branche &#39;develop&#39; dans la branche &#39;main&#39;&lt;/font&gt;&lt;/li&gt;&lt;li&gt;&lt;font style=&quot;font-size: 16px;&quot; face=&quot;Helvetica&quot;&gt;&lt;br&gt;&lt;/font&gt;&lt;/li&gt;&lt;li&gt;&lt;font style=&quot;font-size: 16px;&quot; face=&quot;jkgmctVSndgjGGqXvUi7&quot;&gt;Etiquette (&lt;b&gt;tag&lt;/b&gt;) la livraison par son nom&lt;/font&gt;&lt;/li&gt;&lt;/ul&gt;" style="rounded=1;whiteSpace=wrap;html=1;sketch=0;fillStyle=solid;strokeColor=default;align=center;verticalAlign=middle;fontFamily=Helvetica;fontSize=12;fontColor=default;fillColor=none;" parent="1" vertex="1">
          <mxGeometry x="70" y="140" width="150" height="190" as="geometry" />
        </mxCell>
        <mxCell id="IFHdx7F4sBDOh2H3q8Vr-234" value="" style="endArrow=none;html=1;rounded=0;entryX=0;entryY=0.5;entryDx=0;entryDy=0;fillColor=#b1ddf0;strokeColor=#10739e;strokeWidth=2;startArrow=classic;startFill=1;" parent="1" target="IFHdx7F4sBDOh2H3q8Vr-233" edge="1">
          <mxGeometry width="50" height="50" relative="1" as="geometry">
            <mxPoint x="270" y="160" as="sourcePoint" />
            <mxPoint x="810" y="159.5" as="targetPoint" />
          </mxGeometry>
        </mxCell>
        <mxCell id="IFHdx7F4sBDOh2H3q8Vr-237" value="v1.0.1" style="shape=tape;whiteSpace=wrap;html=1;sketch=0;fillStyle=solid;strokeColor=#001DBC;align=center;verticalAlign=middle;fontFamily=Helvetica;fontSize=12;fontColor=#ffffff;fillColor=#0050ef;" parent="1" vertex="1">
          <mxGeometry x="285" y="90" width="45" height="40" as="geometry" />
        </mxCell>
        <mxCell id="IFHdx7F4sBDOh2H3q8Vr-233" value="" style="ellipse;whiteSpace=wrap;html=1;fillColor=#0050ef;sketch=0;fillStyle=solid;movable=1;resizable=1;rotatable=1;deletable=1;editable=1;locked=0;connectable=1;strokeColor=#001DBC;fontColor=#ffffff;" parent="1" vertex="1">
          <mxGeometry x="310" y="150" width="20" height="20" as="geometry" />
        </mxCell>
        <mxCell id="IFHdx7F4sBDOh2H3q8Vr-253" style="edgeStyle=orthogonalEdgeStyle;rounded=0;orthogonalLoop=1;jettySize=auto;html=1;exitX=1;exitY=0.5;exitDx=0;exitDy=0;fontFamily=Helvetica;fontSize=12;fontColor=default;entryX=0.75;entryY=0;entryDx=0;entryDy=0;entryPerimeter=0;" parent="1" source="IFHdx7F4sBDOh2H3q8Vr-250" target="IFHdx7F4sBDOh2H3q8Vr-237" edge="1">
          <mxGeometry relative="1" as="geometry">
            <mxPoint x="350" y="40" as="targetPoint" />
          </mxGeometry>
        </mxCell>
        <mxCell id="IFHdx7F4sBDOh2H3q8Vr-250" value="&lt;ul style=&quot;margin: 1em 0px; padding: 0px 0px 0px 1em; list-style: none; text-indent: -1em; text-shadow: none; line-height: 120%; font-size: 15px;&quot;&gt;&lt;li&gt;git tag -a v1.0.1 -m &amp;nbsp;&quot;release version 1.0.1&quot;&lt;/li&gt;&lt;li&gt;git push --tags&lt;/li&gt;&lt;/ul&gt;" style="rounded=1;whiteSpace=wrap;html=1;sketch=0;fillStyle=solid;strokeColor=default;align=center;verticalAlign=middle;fontFamily=Helvetica;fontSize=12;fontColor=default;fillColor=none;" parent="1" vertex="1">
          <mxGeometry x="120" y="-50" width="150" height="100" as="geometry" />
        </mxCell>
        <mxCell id="ImUb1OBMksggjN6c6jX0-104" value="" style="shape=flexArrow;endArrow=classic;html=1;rounded=0;fillColor=#0050ef;strokeColor=#001DBC;" edge="1" parent="1">
          <mxGeometry width="50" height="50" relative="1" as="geometry">
            <mxPoint x="445" y="290" as="sourcePoint" />
            <mxPoint x="330" y="170" as="targetPoint" />
          </mxGeometry>
        </mxCell>
      </root>
    </mxGraphModel>
  </diagram>
  <diagram id="wf1qqyn4l_Nr7B1irWyH" name="SD">
    <mxGraphModel dx="2021" dy="725" grid="1" gridSize="10" guides="1" tooltips="1" connect="1" arrows="1" fold="1" page="1" pageScale="1" pageWidth="827" pageHeight="1169" math="0" shadow="0">
      <root>
        <mxCell id="0" />
        <mxCell id="1" parent="0" />
        <mxCell id="Hv9rMlrTs9s3AqWGWpB2-22" value="SD test" style="shape=umlFrame;whiteSpace=wrap;html=1;pointerEvents=0;recursiveResize=0;container=1;collapsible=0;width=160;sketch=0;fillStyle=solid;strokeColor=#314354;align=center;verticalAlign=middle;fontFamily=Helvetica;fontSize=12;fontColor=#ffffff;fillColor=#647687;" vertex="1" parent="1">
          <mxGeometry x="-140" y="60" width="780" height="520" as="geometry" />
        </mxCell>
        <mxCell id="Hv9rMlrTs9s3AqWGWpB2-26" value="" style="shape=umlLifeline;perimeter=lifelinePerimeter;whiteSpace=wrap;html=1;container=1;dropTarget=0;collapsible=0;recursiveResize=0;outlineConnect=0;portConstraint=eastwest;newEdgeStyle={&quot;curved&quot;:0,&quot;rounded&quot;:0};participant=umlActor;sketch=0;fillStyle=solid;pointerEvents=0;strokeColor=default;align=center;verticalAlign=middle;fontFamily=Helvetica;fontSize=12;fontColor=default;fillColor=none;" vertex="1" parent="Hv9rMlrTs9s3AqWGWpB2-22">
          <mxGeometry x="50" y="90" width="20" height="400" as="geometry" />
        </mxCell>
        <mxCell id="Hv9rMlrTs9s3AqWGWpB2-27" value="" style="html=1;points=[[0,0,0,0,5],[0,1,0,0,-5],[1,0,0,0,5],[1,1,0,0,-5]];perimeter=orthogonalPerimeter;outlineConnect=0;targetShapes=umlLifeline;portConstraint=eastwest;newEdgeStyle={&quot;curved&quot;:0,&quot;rounded&quot;:0};sketch=0;fillStyle=solid;pointerEvents=0;strokeColor=default;align=center;verticalAlign=middle;fontFamily=Helvetica;fontSize=12;fontColor=default;fillColor=none;" vertex="1" parent="Hv9rMlrTs9s3AqWGWpB2-26">
          <mxGeometry x="5" y="50" width="10" height="310" as="geometry" />
        </mxCell>
        <mxCell id="Hv9rMlrTs9s3AqWGWpB2-28" value="IHM" style="shape=umlLifeline;perimeter=lifelinePerimeter;whiteSpace=wrap;html=1;container=1;dropTarget=0;collapsible=0;recursiveResize=0;outlineConnect=0;portConstraint=eastwest;newEdgeStyle={&quot;curved&quot;:0,&quot;rounded&quot;:0};sketch=0;fillStyle=solid;pointerEvents=0;strokeColor=default;align=center;verticalAlign=middle;fontFamily=Helvetica;fontSize=12;fontColor=default;fillColor=none;" vertex="1" parent="Hv9rMlrTs9s3AqWGWpB2-22">
          <mxGeometry x="210" y="90" width="100" height="400" as="geometry" />
        </mxCell>
        <mxCell id="Hv9rMlrTs9s3AqWGWpB2-29" value="" style="html=1;points=[[0,0,0,0,5],[0,1,0,0,-5],[1,0,0,0,5],[1,1,0,0,-5]];perimeter=orthogonalPerimeter;outlineConnect=0;targetShapes=umlLifeline;portConstraint=eastwest;newEdgeStyle={&quot;curved&quot;:0,&quot;rounded&quot;:0};sketch=0;fillStyle=solid;pointerEvents=0;strokeColor=default;align=center;verticalAlign=middle;fontFamily=Helvetica;fontSize=12;fontColor=default;fillColor=none;" vertex="1" parent="Hv9rMlrTs9s3AqWGWpB2-28">
          <mxGeometry x="45" y="50" width="10" height="190" as="geometry" />
        </mxCell>
        <mxCell id="Hv9rMlrTs9s3AqWGWpB2-30" value="Environnement&amp;nbsp;&lt;br&gt;C++" style="shape=umlLifeline;perimeter=lifelinePerimeter;whiteSpace=wrap;html=1;container=1;dropTarget=0;collapsible=0;recursiveResize=0;outlineConnect=0;portConstraint=eastwest;newEdgeStyle={&quot;curved&quot;:0,&quot;rounded&quot;:0};sketch=0;fillStyle=solid;pointerEvents=0;strokeColor=default;align=center;verticalAlign=middle;fontFamily=Helvetica;fontSize=12;fontColor=default;fillColor=none;" vertex="1" parent="Hv9rMlrTs9s3AqWGWpB2-22">
          <mxGeometry x="410" y="90" width="100" height="400" as="geometry" />
        </mxCell>
        <mxCell id="Hv9rMlrTs9s3AqWGWpB2-31" value="" style="html=1;points=[[0,0,0,0,5],[0,1,0,0,-5],[1,0,0,0,5],[1,1,0,0,-5]];perimeter=orthogonalPerimeter;outlineConnect=0;targetShapes=umlLifeline;portConstraint=eastwest;newEdgeStyle={&quot;curved&quot;:0,&quot;rounded&quot;:0};sketch=0;fillStyle=solid;pointerEvents=0;strokeColor=default;align=center;verticalAlign=middle;fontFamily=Helvetica;fontSize=12;fontColor=default;fillColor=none;" vertex="1" parent="Hv9rMlrTs9s3AqWGWpB2-30">
          <mxGeometry x="45" y="50" width="10" height="170" as="geometry" />
        </mxCell>
        <mxCell id="Hv9rMlrTs9s3AqWGWpB2-35" value="" style="html=1;points=[[0,0,0,0,5],[0,1,0,0,-5],[1,0,0,0,5],[1,1,0,0,-5]];perimeter=orthogonalPerimeter;outlineConnect=0;targetShapes=umlLifeline;portConstraint=eastwest;newEdgeStyle={&quot;curved&quot;:0,&quot;rounded&quot;:0};sketch=0;fillStyle=solid;pointerEvents=0;strokeColor=default;align=center;verticalAlign=middle;fontFamily=Helvetica;fontSize=12;fontColor=default;fillColor=none;" vertex="1" parent="Hv9rMlrTs9s3AqWGWpB2-30">
          <mxGeometry x="55" y="120" width="5" height="90" as="geometry" />
        </mxCell>
        <mxCell id="Hv9rMlrTs9s3AqWGWpB2-36" value="1.1.1: self call" style="html=1;align=left;spacingLeft=2;endArrow=block;rounded=0;edgeStyle=orthogonalEdgeStyle;curved=0;rounded=0;fontFamily=Helvetica;fontSize=12;fontColor=default;" edge="1" target="Hv9rMlrTs9s3AqWGWpB2-35" parent="Hv9rMlrTs9s3AqWGWpB2-30">
          <mxGeometry relative="1" as="geometry">
            <mxPoint x="50" y="100" as="sourcePoint" />
            <Array as="points">
              <mxPoint x="80" y="100" />
              <mxPoint x="80" y="120" />
            </Array>
          </mxGeometry>
        </mxCell>
        <mxCell id="Hv9rMlrTs9s3AqWGWpB2-32" value="" style="html=1;verticalAlign=bottom;labelBackgroundColor=none;endArrow=block;endFill=1;rounded=0;fontFamily=Helvetica;fontSize=12;fontColor=default;" edge="1" parent="Hv9rMlrTs9s3AqWGWpB2-22" target="Hv9rMlrTs9s3AqWGWpB2-29">
          <mxGeometry width="160" relative="1" as="geometry">
            <mxPoint x="60" y="160" as="sourcePoint" />
            <mxPoint x="220" y="160" as="targetPoint" />
          </mxGeometry>
        </mxCell>
        <mxCell id="Hv9rMlrTs9s3AqWGWpB2-33" value="1: message" style="edgeLabel;html=1;align=center;verticalAlign=middle;resizable=0;points=[];fontSize=12;fontFamily=Helvetica;fontColor=default;" vertex="1" connectable="0" parent="Hv9rMlrTs9s3AqWGWpB2-32">
          <mxGeometry x="0.0154" y="-1" relative="1" as="geometry">
            <mxPoint x="-9" y="-11" as="offset" />
          </mxGeometry>
        </mxCell>
        <mxCell id="Hv9rMlrTs9s3AqWGWpB2-34" value="1.1: xml" style="html=1;verticalAlign=bottom;endArrow=block;curved=0;rounded=0;fontFamily=Helvetica;fontSize=12;fontColor=default;" edge="1" parent="Hv9rMlrTs9s3AqWGWpB2-22" target="Hv9rMlrTs9s3AqWGWpB2-30">
          <mxGeometry width="80" relative="1" as="geometry">
            <mxPoint x="260" y="180" as="sourcePoint" />
            <mxPoint x="340" y="180" as="targetPoint" />
          </mxGeometry>
        </mxCell>
        <mxCell id="Hv9rMlrTs9s3AqWGWpB2-37" value="1.1.1.1: response xml" style="html=1;verticalAlign=bottom;endArrow=block;curved=0;rounded=0;fontFamily=Helvetica;fontSize=12;fontColor=default;" edge="1" parent="Hv9rMlrTs9s3AqWGWpB2-22">
          <mxGeometry width="80" relative="1" as="geometry">
            <mxPoint x="455" y="300" as="sourcePoint" />
            <mxPoint x="259.5" y="300" as="targetPoint" />
          </mxGeometry>
        </mxCell>
        <mxCell id="Hv9rMlrTs9s3AqWGWpB2-38" value="return" style="html=1;verticalAlign=bottom;endArrow=open;dashed=1;endSize=8;curved=0;rounded=0;fontFamily=Helvetica;fontSize=12;fontColor=default;exitX=0;exitY=1;exitDx=0;exitDy=-5;exitPerimeter=0;" edge="1" parent="Hv9rMlrTs9s3AqWGWpB2-22" source="Hv9rMlrTs9s3AqWGWpB2-29" target="Hv9rMlrTs9s3AqWGWpB2-27">
          <mxGeometry relative="1" as="geometry">
            <mxPoint x="250" y="320" as="sourcePoint" />
            <mxPoint x="170" y="320" as="targetPoint" />
          </mxGeometry>
        </mxCell>
      </root>
    </mxGraphModel>
  </diagram>
</mxfile>
